<svg width="1024" height="1024" viewBox="0 0 1024 1024" fill="none" xmlns="http://www.w3.org/2000/svg">
<path d="M595.594 748.584C614.472 723.571 615.926 697.704 600.42 670.94C576.201 629.138 552.108 587.263 527.934 545.435C526.866 543.588 526.012 541.538 524.097 540.172C521.991 540.585 521.431 542.525 520.571 544.014C483.483 608.205 446.258 672.318 409.452 736.67C391.375 768.276 364.856 787.63 328.685 790.923C290.319 794.416 258.746 780.105 236.196 748.309C192.731 687.022 230.001 600.426 304.422 590.122C356.727 582.88 401.26 613.266 416.112 661.112C416.797 663.319 417.582 665.495 418.431 668.011C420.985 666.727 421.873 664.508 422.987 662.579C447.562 620.019 472.105 577.441 496.653 534.866C520.119 494.167 543.589 453.471 567.044 412.766C571.442 405.134 578.445 404.991 582.846 412.615C620.495 477.831 658.128 543.056 695.711 608.309C703.937 622.59 713.404 636.27 719.566 651.596C734.406 688.506 728.572 722.712 704.667 754.123C702.364 757.149 699.745 759.935 696.986 763.168C699.145 764.153 700.988 763.579 702.843 763.13C743.789 753.225 775.911 717.774 781.78 676.28C785.324 651.231 780.44 627.978 767.828 606.169C730.713 541.989 693.651 477.778 656.559 413.585C642.89 389.928 629.299 366.225 615.487 342.652C601.394 318.6 572.261 311.699 548.855 326.801C542.296 331.033 537.559 337.076 533.678 343.798C503.944 395.307 474.202 446.811 444.472 498.322C427.817 527.18 411.113 556.011 394.611 584.958C392.282 589.044 390.408 589.312 386.573 586.784C366.141 573.315 343.388 566.834 319.101 566.658C303.737 566.547 288.645 569.483 274.294 575.419C272.652 576.098 271.092 577.259 269.081 576.79C267.838 574.882 269.465 573.647 270.22 572.34C296.644 526.613 323.148 480.932 349.553 435.194C378.039 385.851 406.499 336.492 434.85 287.071C450.815 259.242 474.355 242.16 505.856 236.018C546.399 228.112 590.398 248.284 611.236 284.385C654.791 359.847 698.342 435.312 741.894 510.777C758.215 539.058 774.547 567.333 790.85 595.625C832.553 667.994 795.883 761.03 716.052 785.526C703.387 789.412 690.521 791.459 677.241 791.405C643.576 791.267 609.91 791.27 576.246 791.449C571.344 791.475 569.968 790.152 569.516 785.065C568.511 773.768 569.928 764.822 582.322 760.303C587.677 758.351 591.52 753.273 595.594 748.584Z" fill="white"/>
</svg>
