<svg width="92" height="69" viewBox="0 0 92 69" fill="none" xmlns="http://www.w3.org/2000/svg">
<path d="M62.0429 10.5929C62.4047 10.294 62.7417 10.0328 63.101 9.73261C63.5325 9.40757 63.9481 9.13046 64.3496 8.83415C66.849 6.98984 69.4797 5.36935 72.3212 4.11293C74.4304 3.18037 76.6038 2.45477 78.902 2.17278C80.1904 2.0147 81.4896 1.93929 82.7768 2.12044C84.913 2.42106 86.8659 3.187 88.4662 4.6926C88.9616 5.15864 89.3798 5.70782 89.8718 6.24221C89.9846 6.40546 90.0514 6.55013 90.1344 6.68469C91.0344 8.1442 91.5499 9.73446 91.8192 11.4277C92.1698 13.6321 91.9739 15.8011 91.5446 17.9676C91.044 20.4939 90.1607 22.8861 89.0911 25.218C87.9066 27.8006 86.4746 30.2374 84.8396 32.5518C84.0899 33.613 83.2709 34.6247 82.4691 35.7029C82.2688 35.9452 82.0609 36.1276 81.904 36.347C81.7897 36.5068 81.7165 36.709 81.6705 36.9032C81.4596 37.792 81.2979 38.6938 81.0583 39.5743C80.1847 42.7846 78.7434 45.7237 76.8449 48.4454C75.6751 50.1226 74.316 51.6227 72.7871 52.9677C72.4884 53.2305 72.3455 53.4973 72.3514 53.9033C72.3717 55.3027 72.2197 56.6913 72.0015 58.0713C71.6489 60.3012 70.999 62.4324 69.9033 64.4159C69.3337 65.447 68.6191 66.3606 67.7482 67.1432C66.0047 68.7099 63.9595 69.2479 61.6704 68.8691C60.2853 68.6398 59.0128 68.1183 57.8175 67.3689C56.5927 66.6011 55.498 65.6825 54.4763 64.6668C54.2337 64.4256 53.999 64.1765 53.719 63.9128C53.6425 63.8372 53.6154 63.7729 53.5718 63.7234C51.7726 61.6837 50.2552 59.4477 48.9954 57.0352C48.0979 55.3164 47.37 53.5251 46.7917 51.672C46.7335 51.4855 46.7359 51.26 46.5105 51.1184C46.314 51.3471 46.244 51.6304 46.1476 51.9562C46.1509 52.0142 46.1632 52.0214 46.123 52.059C46.0574 52.2018 46.032 52.3069 46.0067 52.4121C46.0067 52.4121 46.0084 52.4187 46.0061 52.4155C45.9466 52.4797 45.8687 52.5382 45.8351 52.616C44.4425 55.8427 42.5805 58.7752 40.3603 61.4838C40.2737 61.5894 40.193 61.6999 40.0899 61.8499C39.3719 62.611 38.6732 63.3301 37.9753 64.05C36.97 65.0869 35.8323 65.9601 34.6426 66.7666C33.8883 67.278 33.1212 67.7681 32.2769 68.1238C31.0286 68.6497 29.7449 69.0095 28.3794 68.9998C26.0425 68.9832 24.1643 68.0213 22.7167 66.1912C21.711 64.9198 21.0704 63.4635 20.5793 61.9256C19.7975 59.4775 19.5773 56.9572 19.5634 54.4065C19.5622 54.2018 19.5632 53.9972 19.5632 53.7683C19.393 53.6171 19.2265 53.4636 19.0542 53.317C17.42 51.9276 16.2632 50.6873 15.0436 48.9653C13.2065 46.3714 11.8353 43.5492 10.9566 40.4841C10.6278 39.3375 10.3916 38.1735 10.2352 36.9937C10.1845 36.6111 10.0493 36.3015 9.80168 36.0148C8.74133 34.7871 7.7843 33.4776 6.86486 32.1426C5.15074 29.6536 3.69315 27.0203 2.51384 24.2297C1.85372 22.6676 1.30131 21.0712 0.869543 19.4329C0.431597 17.771 0.108412 16.0847 0.038213 14.3638C-0.00182654 13.3821 -0.0334352 12.3886 0.0675984 11.4148C0.412779 8.08771 1.67424 5.18885 4.2256 2.95663C5.58411 1.76805 7.14667 0.952201 8.89637 0.497315C11.2955 -0.12641 13.7059 -0.134247 16.1302 0.311174C16.3312 0.348101 16.5342 0.373953 16.7857 0.389294C16.8352 0.373635 16.8427 0.373911 16.8427 0.373911C16.9197 0.416899 16.9919 0.477691 17.0743 0.500132C17.9207 0.7305 18.7687 0.954665 19.6773 1.17487C19.7553 1.19854 19.7803 1.21613 19.8369 1.2206C20.1286 1.33789 20.3922 1.4694 20.6662 1.57306C22.7551 2.36322 24.7556 3.33584 26.6573 4.51143C27.4308 4.98957 28.1942 5.48424 29.014 5.96348C29.0657 5.95558 29.0606 5.96493 29.0606 5.96493C29.2076 6.27075 29.5174 6.39134 29.7681 6.56947C31.1384 7.54326 32.4536 8.58534 33.7 9.71531C34.0364 10.0202 34.3725 10.3255 34.7516 10.6468C34.867 10.7497 34.9316 10.8447 35.013 10.9216C36.3071 12.1428 37.5196 13.4444 38.6844 14.7876C40.0137 16.3206 41.2914 17.8983 42.3881 19.6147C42.7811 20.2299 43.1936 20.8326 43.5809 21.4515C44.9781 23.6843 46.0675 26.0676 46.9745 28.5387C47.061 28.7743 47.1269 29.0175 47.2098 29.2544C47.2444 29.3531 47.2988 29.4448 47.345 29.5416C47.4208 29.5004 47.4775 29.4895 47.4897 29.46C48.6463 26.6615 50.1355 24.0511 51.8703 21.578C53.0242 19.933 54.2473 18.3445 55.5828 16.8432C57.1302 15.1035 58.773 13.4617 60.5125 11.918C61.0064 11.4798 61.5158 11.0592 62.0429 10.5929ZM56.5589 24.0248C56.5358 24.0722 56.5128 24.1196 56.5049 24.1802C56.5049 24.1802 56.5004 24.1606 56.4119 24.1544C56.3593 24.222 56.3067 24.2896 56.1765 24.4015C55.8956 24.7444 55.4973 24.9747 55.187 25.3973C55.1731 25.4554 55.1593 25.5136 55.1321 25.6279C55.2985 25.6279 55.4301 25.625 55.5614 25.6283C56.966 25.6638 58.2867 26.0282 59.5342 26.6685C60.5051 27.1667 61.4264 27.7454 62.242 28.4769C62.9162 29.0817 63.5697 29.71 64.2668 30.4136C65.2827 31.6184 66.2549 32.8528 67.0722 34.2094C68.0998 35.9149 69.0581 37.6527 69.7505 39.5267C70.0196 40.255 70.2565 40.9954 70.5133 41.7284C70.555 41.8473 70.624 41.9565 70.675 42.0593C70.7675 42.0378 70.8201 42.0406 70.8516 42.0161C72.9412 40.3873 74.8753 38.5868 76.6866 36.6511C76.9827 36.3347 77.2532 35.9886 77.5786 35.7065C78.0747 35.2764 78.3805 34.7861 78.2914 34.1043C78.5297 31.1551 77.9752 28.3596 76.6194 25.7405C75.8124 24.1817 74.7157 22.8466 73.3225 21.7673C72.2625 20.9461 71.0674 20.4002 69.8082 19.9845C69.5317 19.8932 69.2322 19.8726 68.855 19.7628C68.5447 19.7192 68.2356 19.6588 67.9238 19.6349C66.8948 19.5562 65.868 19.5437 64.7435 19.8039C64.2845 19.9066 63.8158 19.9784 63.3689 20.1201C62.8429 20.2869 62.2953 20.4183 61.8508 20.7717C61.8508 20.7717 61.8532 20.762 61.7521 20.7464C61.6698 20.7993 61.5875 20.8522 61.5083 20.9048C61.5083 20.9048 61.5035 20.9022 61.399 20.8848C61.2203 20.973 61.0416 21.0611 60.7683 21.1513C60.5114 21.2631 60.2394 21.3493 59.9649 21.611C59.5662 21.8614 59.1545 22.0931 58.7719 22.3663C58.1529 22.8085 57.5532 23.2779 56.8537 23.7581C56.8284 23.8107 56.8032 23.8633 56.7915 23.9163C56.7915 23.9163 56.7848 23.9044 56.6976 23.8975C56.6779 23.9464 56.6581 23.9954 56.663 24.0585C56.663 24.0585 56.6428 24.0385 56.5589 24.0248ZM55.3868 59.7929C55.4059 59.8249 55.4332 59.8458 55.4974 59.944C55.6779 60.1484 55.8583 60.3528 56.062 60.6296C56.1187 60.6775 56.1753 60.7254 56.2586 60.8615C56.5476 61.1741 56.8241 61.4998 57.1293 61.7955C57.433 62.0897 57.7656 62.3537 58.1286 62.7072C58.4448 62.94 58.761 63.1728 59.1147 63.4717C59.1803 63.5064 59.2458 63.5412 59.3655 63.6513C59.6446 63.8287 59.9203 64.0122 60.2056 64.179C60.2678 64.2154 60.3642 64.1927 60.4569 64.1932C60.4569 64.1932 60.455 64.2046 60.459 64.3041C60.7434 64.4424 61.0185 64.6067 61.3141 64.7141C62.0952 64.9979 62.897 65.0856 63.7168 64.8926C65.0419 64.5805 65.926 63.7014 66.6305 62.5939C66.6603 62.5471 66.6374 62.4664 66.6305 62.3928C66.6305 62.3928 66.6402 62.4012 66.7342 62.3825C67.231 61.5327 67.6468 60.641 67.8866 59.6871C68.169 58.5634 68.5011 57.4436 68.5086 56.2676C68.5088 56.2358 68.4567 56.2038 68.4185 56.1597C68.3623 56.1729 68.2934 56.1763 68.2364 56.2044C67.7889 56.4249 67.3502 56.6645 66.8967 56.8714C64.7001 57.8736 62.4062 58.442 59.9819 58.4152C59.5976 58.411 59.2133 58.4144 58.7319 58.3765C57.938 58.3194 57.162 58.1664 56.4118 57.9004C55.687 57.6434 54.9694 57.3659 54.182 57.0144C53.9238 56.8772 53.6666 56.7379 53.4054 56.6067C53.3826 56.5952 53.3334 56.6369 53.2565 56.6724C53.5591 57.1973 53.8111 57.747 54.2494 58.2451C54.2873 58.2886 54.3251 58.332 54.3707 58.474C54.6586 58.8446 54.9465 59.2152 55.26 59.6536C55.2969 59.6833 55.3338 59.713 55.3868 59.7929ZM63.3712 14.5614C63.3303 14.5874 63.3052 14.6242 63.2326 14.6924C63.1923 14.7166 63.1662 14.7515 63.0744 14.8287C63.0255 14.8967 62.9766 14.9647 62.8569 15.0699C62.7548 15.1887 62.6527 15.3076 62.4598 15.4497C62.2754 15.6223 62.091 15.795 61.8758 15.9679C61.8758 15.9679 61.8403 16.0155 61.7511 16.0587C61.6028 16.2197 61.3677 16.3118 61.327 16.6096C61.434 16.5973 61.5195 16.5966 61.6003 16.5766C62.2839 16.4069 62.9611 16.2048 63.6513 16.0693C64.4299 15.9165 65.2167 15.7553 66.0056 15.7171C67.6006 15.6398 69.1788 15.7891 70.727 16.2384C72.5867 16.778 74.2808 17.6201 75.7865 18.8494C77.0145 19.852 78.0535 21.0178 78.9482 22.3316C80.5086 24.623 81.4184 27.1537 81.8164 29.8873C81.8246 29.9438 81.8763 29.994 81.9256 30.0773C82.0074 29.9963 82.0779 29.9425 82.1285 29.8738C83.024 28.6579 83.7634 27.3439 84.4995 26.0282C84.5302 25.9734 84.5229 25.8971 84.5307 25.8294C84.5307 25.8294 84.5325 25.8312 84.6217 25.7837C84.9632 25.1134 85.3189 24.45 85.6437 23.7716C86.642 21.6869 87.4302 19.5286 87.8953 17.2549C88.1527 15.9967 88.3112 14.7324 88.2811 13.4461C88.2508 12.1501 87.9823 10.9038 87.4551 9.72508C87.0214 8.75548 86.4215 7.88927 85.5536 7.26078C84.7172 6.65506 83.7774 6.25443 82.7731 6.01412C81.7872 5.7782 80.7899 5.82973 79.7922 5.89768C78.2585 6.00212 76.8047 6.45918 75.3692 6.96416C74.5576 7.24964 73.781 7.63575 72.989 7.9774C71.5861 8.58256 70.3052 9.4122 68.9923 10.1828C68.9552 10.2046 68.93 10.2471 68.8093 10.3003C68.568 10.482 68.3267 10.6637 67.9936 10.8677C67.5015 11.1927 66.9948 11.4984 66.4983 11.963C65.7219 12.5087 64.9807 13.0976 64.2323 13.7877C64.1839 13.8456 64.1355 13.9036 64.0156 13.985C63.9662 14.0403 63.9168 14.0956 63.7891 14.172C63.7176 14.2506 63.6461 14.3291 63.5098 14.4286C63.4684 14.4542 63.4437 14.4911 63.3712 14.5614ZM32.4014 31.7219C32.3741 31.758 32.3467 31.794 32.2349 31.8662C31.979 32.118 31.7183 32.3651 31.4717 32.6258C31.4254 32.6748 31.436 32.7784 31.4313 32.8628C31.4313 32.8628 31.4245 32.8525 31.3286 32.8248C31.3148 32.8813 31.3009 32.9378 31.2949 33.0001C31.2949 33.0001 31.289 32.9924 31.1967 32.9693C31.1815 33.0241 31.1663 33.0789 31.1585 33.1375C31.1585 33.1375 31.1538 33.1304 31.0587 33.1173C30.8748 33.3167 30.684 33.5104 30.5117 33.7195C30.4668 33.7739 30.4793 33.8763 30.4764 33.9615C30.4764 33.9615 30.4694 33.9516 30.3758 33.9201C30.2135 34.1071 30.0421 34.2873 29.8933 34.4846C29.8326 34.5652 29.8209 34.6831 29.7942 34.7856C29.7942 34.7856 29.791 34.7789 29.696 34.7784C29.5543 34.9729 29.405 35.1625 29.2752 35.3649C29.2354 35.427 29.2491 35.524 29.2484 35.6098C29.2484 35.6098 29.2432 35.6002 29.1483 35.5832C28.8663 35.9862 28.5799 36.3862 28.3072 36.7955C28.267 36.8557 28.292 36.96 28.2936 37.0517C28.2936 37.0517 28.2863 37.0456 28.1789 37.0599C28.1705 37.1254 28.162 37.191 28.1571 37.2578C28.1571 37.2578 28.1534 37.2562 28.0593 37.2388C27.9101 37.4673 27.7503 37.6896 27.6134 37.9253C26.6131 39.6474 25.8128 41.4639 25.1172 43.3287C24.9829 43.6888 24.8739 44.0584 24.7432 44.4538C24.9289 44.5922 25.0796 44.7291 25.2517 44.8285C25.98 45.2494 26.7027 45.6827 27.4494 46.0683C29.3329 47.0407 31.2694 47.8792 33.3484 48.3444C34.897 48.691 36.4477 48.7584 38.012 48.4624C40.3779 48.0147 42.0979 46.6527 43.3081 44.6152C44.2202 43.0796 44.6703 41.388 44.7809 39.6031C44.9314 37.1743 44.6528 34.8121 43.7301 32.5454C43.2661 31.4054 42.6029 30.4024 41.6701 29.6026C40.8337 28.8855 39.8741 28.4654 38.7455 28.4924C37.2157 28.5289 35.8708 29.0818 34.6308 29.9413C34.5886 29.9706 34.5825 30.0526 34.5692 30.1158C34.5692 30.1158 34.5654 30.1049 34.4691 30.0714C33.8888 30.4002 33.3631 30.8039 32.8791 31.2622C32.8261 31.3124 32.8169 31.4095 32.7956 31.4894C32.7956 31.4894 32.7915 31.481 32.699 31.4636C32.6828 31.5162 32.6665 31.5689 32.6593 31.6266C32.6593 31.6266 32.6536 31.6174 32.578 31.5768C32.5411 31.6183 32.5042 31.6599 32.4014 31.7219ZM35.9352 60.7917C35.9725 60.7661 35.9952 60.7309 36.0855 60.6454C36.6397 60.0247 37.1971 59.4068 37.7457 58.7811C37.8626 58.6478 37.9478 58.4864 38.1246 58.291C38.6378 57.6342 39.1474 56.9749 39.6195 56.2072C38.8838 56.5773 38.2196 56.9113 37.5562 57.2469C37.5384 57.2559 37.5298 57.2831 37.4912 57.2928C37.4912 57.2928 37.4777 57.3172 37.3662 57.3111C37.1121 57.4092 36.8621 57.521 36.6029 57.6029C35.8892 57.8284 35.1832 58.0983 34.4535 58.2493C31.655 58.8285 28.9012 58.6082 26.1998 57.6809C26.0303 57.6227 25.8536 57.586 25.6765 57.5391C25.6765 57.5391 25.674 57.5367 25.6128 57.4574C24.9295 57.1539 24.2465 56.8494 23.5614 56.5499C23.5288 56.5357 23.4769 56.566 23.4073 56.5816C23.3865 57.2375 23.4821 57.8883 23.5774 58.5398C23.7737 59.8823 24.1515 61.1691 24.7825 62.3694C25.164 63.095 25.5963 63.7928 26.3635 64.326C27.2098 65.0015 28.1733 65.249 29.233 65.0836C30.1122 64.9464 30.9511 64.6696 31.7222 64.2143C32.132 63.9724 32.5394 63.7228 32.927 63.4468C33.7398 62.8681 34.5206 62.2482 35.2812 61.4763C35.4795 61.256 35.6779 61.0358 35.9352 60.7917ZM52.4394 30.6649C52.4394 30.6649 52.4364 30.6502 52.3407 30.6213C51.976 30.8621 51.6448 31.1337 51.4869 31.5587C51.4869 31.5587 51.49 31.5551 51.3951 31.5845C51.034 31.9409 50.7642 32.3671 50.5498 32.8191C50.2181 33.5183 49.88 34.2205 49.6278 34.9505C48.9186 37.0023 48.6783 39.123 48.8353 41.2885C48.9235 42.5057 49.2101 43.6754 49.7232 44.7818C49.9904 45.3581 50.2645 45.937 50.7847 46.4576C51.1339 46.8582 51.4946 47.2448 52.0372 47.5493C53.4781 48.5338 55.0883 48.8088 56.7866 48.6694C58.4284 48.5347 60.0207 48.1503 61.5492 47.5418C63.4118 46.8002 65.2015 45.9015 66.8986 44.8248C67.0667 44.7182 67.2088 44.57 67.4313 44.3579C67.3492 43.9572 67.3042 43.5443 67.179 43.1577C66.3882 40.7142 65.3801 38.3729 63.9631 36.2198C63.0315 34.8044 62.0209 33.4556 60.7874 32.295C59.6684 31.2422 58.4229 30.3737 56.9737 29.825C55.9556 29.4395 54.9312 29.4154 53.8999 29.7274C53.5615 29.8298 53.2054 29.9343 52.9863 30.2541C52.9863 30.2541 52.9881 30.2492 52.8929 30.2408C52.7614 30.3236 52.6248 30.3995 52.5012 30.493C52.4595 30.5245 52.451 30.6005 52.4394 30.6649ZM71.8457 46.1586C71.7437 46.2364 71.7249 46.3385 71.7451 46.461C71.8303 46.9786 71.9092 47.4972 71.9963 48.0144C72.0064 48.0741 72.0538 48.1275 72.1046 48.2225C72.2071 48.1409 72.3042 48.087 72.3702 48.0073C72.7039 47.6043 73.0407 47.203 73.3559 46.7855C74.139 45.7483 74.8433 44.657 75.5124 43.5427C75.5781 43.4332 75.6907 43.3208 75.5499 43.1491C75.4278 43.2426 75.3008 43.3305 75.1842 43.4307C74.7876 43.7713 74.4045 44.1287 73.998 44.4567C73.3965 44.9422 72.7781 45.4064 72.1702 45.8839C72.0722 45.9609 71.9124 45.9988 71.9506 46.1842C71.9506 46.1842 71.9447 46.1766 71.8457 46.1586ZM67.6152 48.887C67.572 48.9334 67.5289 48.9799 67.4827 49.0404C67.4827 49.0404 67.4758 49.0278 67.3676 49.0257C66.9796 49.2285 66.5655 49.3909 66.2831 49.7548C66.2831 49.7548 66.2781 49.7389 66.1757 49.7284C66.0947 49.7835 66.0136 49.8386 65.8384 49.9163C64.422 50.6463 62.9633 51.2779 61.3562 51.8113C60.8964 51.9394 60.4403 52.0839 59.9759 52.1916C59.4015 52.3247 58.8237 52.4509 58.2412 52.538C57.2273 52.6895 56.2053 52.7236 55.1808 52.6746C55.1053 52.6709 55.0277 52.7132 54.9189 52.743C54.9931 52.8384 55.0227 52.9073 55.0748 52.9389C56.9614 54.0845 58.9962 54.6115 61.2004 54.393C62.5669 54.2576 63.8764 53.8936 65.1479 53.3714C66.2703 52.9104 67.3074 52.3055 68.2962 51.6053C68.5339 51.4369 68.6023 51.2405 68.5736 50.9624C68.4984 50.2344 68.4441 49.5043 68.3731 48.7758C68.3654 48.6958 68.3038 48.6211 68.2641 48.5375C68.0105 48.6002 67.8058 48.6763 67.7049 48.9128C67.7049 48.9128 67.7126 48.9079 67.6152 48.887ZM18.0478 46.4621C18.0478 46.4621 18.0355 46.4824 18.0158 46.5798C18.4875 47.3927 19.135 48.0615 19.7702 48.7395C19.8192 48.7918 19.9177 48.7971 20.018 48.8332C20.1825 47.9635 20.3379 47.1415 20.4917 46.3278C20.1984 46.0048 19.4199 45.4268 18.9831 45.2004C18.9831 45.2004 18.982 45.202 18.945 45.1102C17.9388 44.2608 16.9331 43.4109 15.925 42.5639C15.8954 42.5391 15.8411 42.544 15.749 42.5247C15.7827 42.6698 15.7941 42.8017 15.8432 42.9174C16.3619 44.1391 17.0646 45.2542 17.8206 46.3371C17.8657 46.4017 17.9591 46.4323 18.0478 46.4621ZM26.152 49.7856C26.0257 49.7351 25.8994 49.6847 25.769 49.615C25.769 49.615 25.7511 49.6227 25.6995 49.5391C25.4055 49.3669 25.116 49.1864 24.8163 49.0248C24.5044 48.8566 24.2126 48.638 23.8585 48.5611C23.5839 49.266 23.3609 50.9219 23.412 51.8121C23.4397 51.8477 23.4608 51.8927 23.496 51.9175C24.7275 52.7832 26.0081 53.5549 27.4458 54.0324C28.6138 54.4203 29.8001 54.7115 31.0345 54.7624C33.5751 54.8673 35.858 54.0751 37.979 52.7281C38.0663 52.6727 38.1859 52.6174 38.1487 52.4303C38.0763 52.4259 37.993 52.4055 37.9153 52.4187C36.811 52.6056 35.7022 52.5982 34.5903 52.5109C34.4344 52.4986 34.276 52.518 34.0316 52.4798C33.3264 52.333 32.6175 52.2021 31.9169 52.036C30.5975 51.7232 29.3336 51.2405 28.0221 50.6376C27.5191 50.404 27.0178 50.1666 26.5116 49.9402C26.4151 49.897 26.2994 49.8975 26.1849 49.8775C26.1849 49.8775 26.1911 49.8819 26.152 49.7856ZM35.9417 21.3221C34.5591 20.3398 33.0687 19.5721 31.4573 19.0477C29.3306 18.3556 27.1724 18.077 24.9447 18.4701C23.3111 18.7583 21.7891 19.3291 20.3793 20.1911C19.7607 20.5693 19.1616 20.9958 18.6117 21.4688C16.9031 22.9379 15.6855 24.7738 14.8375 26.8545C13.9831 28.9509 13.5776 31.1436 13.5882 33.4105C13.59 33.798 13.6441 34.185 13.6614 34.5728C13.6724 34.8172 13.7743 35.0015 13.943 35.1728C14.3426 35.5786 14.7311 35.9955 15.1204 36.4115C17.0549 38.4785 19.1154 40.4062 21.3591 42.1312C21.4411 42.1943 21.5457 42.2276 21.6653 42.2875C21.7887 42.0232 21.9049 41.8047 21.9781 41.4731C22.2833 40.7602 22.5784 40.0428 22.8952 39.3352C24.2642 36.2779 25.9741 33.4349 28.1582 30.8922C29.486 29.3463 30.976 27.9832 32.6652 26.8449C34.6918 25.4794 36.887 24.6435 39.3608 24.6755C39.4389 24.6765 39.5177 24.6328 39.6129 24.6051C39.5237 24.3123 39.3074 24.167 39.1401 23.9898C38.1993 22.9931 37.1754 22.097 35.9417 21.3221ZM33.2376 14.5775C32.968 14.3382 32.7748 14.0072 32.3862 13.9032C32.3862 13.9032 32.4123 13.8784 32.4047 13.7857C32.0867 13.4768 31.7721 13.1641 31.4472 12.8628C31.3956 12.8149 31.2975 12.8178 31.2104 12.7964C31.2104 12.7964 31.2113 12.7859 31.2244 12.6872C30.1261 11.619 28.9044 10.7011 27.6732 9.80185C26.0164 8.59168 24.2795 7.50762 22.4481 6.57536C20.1422 5.40161 17.7584 4.46968 15.1925 4.07527C13.5213 3.8184 11.8562 3.75897 10.1769 4.11293C8.13771 4.54275 6.5352 5.60341 5.31628 7.27519C4.41949 8.50519 3.96266 9.92581 3.7824 11.4131C3.52394 13.5457 3.72504 15.6627 4.26592 17.7415C4.76787 19.6707 5.44343 21.5368 6.25309 23.3587C7.27782 25.6646 8.52782 27.8369 9.94969 29.9131C9.99269 29.9759 10.0751 30.0113 10.1839 30.0932C10.2203 29.9478 10.2473 29.8662 10.2607 29.7824C10.5932 27.7119 11.2115 25.7356 12.1743 23.8719C12.3414 23.5485 12.4982 23.2197 12.7356 22.8431C12.987 22.4488 13.2383 22.0545 13.5659 21.6117C14.0431 21.0309 14.5001 20.4317 15.0011 19.8726C17.4272 17.1648 20.4447 15.5003 23.9866 14.7996C26.2458 14.3527 28.503 14.4613 30.7541 14.9105C31.9644 15.1521 33.1031 15.6043 34.2477 16.0441C34.3673 16.09 34.4855 16.1399 34.6044 16.188C34.3197 15.6466 33.9476 15.2139 33.4578 14.7912C33.3974 14.7472 33.3369 14.7032 33.2376 14.5775Z" fill="#F7F9FD"/>
</svg>
