<svg xmlns="http://www.w3.org/2000/svg" viewBox="0 0 100 100" fill="none" stroke="#ffffff" stroke-width="6.5" stroke-linejoin="round" stroke-linecap="round">
  <path d="M59,50 C72,36 84,36 94,50 C84,64 72,64 59,50 Z" transform="rotate(45 50 50)"/>
  <path d="M59,50 C72,36 84,36 94,50 C84,64 72,64 59,50 Z" transform="rotate(135 50 50)"/>
  <path d="M59,50 C72,36 84,36 94,50 C84,64 72,64 59,50 Z" transform="rotate(225 50 50)"/>
  <path d="M59,50 C72,36 84,36 94,50 C84,64 72,64 59,50 Z" transform="rotate(315 50 50)"/>
</svg>
